<svg width="20" height="20" viewBox="0 0 20 20" fill="none" xmlns="http://www.w3.org/2000/svg">
<g clip-path="url(#clip0_7668_108543)">
<mask id="mask0_7668_108543" style="mask-type:alpha" maskUnits="userSpaceOnUse" x="0" y="0" width="20" height="20">
<rect width="20" height="20" fill="#D9D9D9"/>
</mask>
<g mask="url(#mask0_7668_108543)">
<path d="M4.16667 11.6663V14.9997H15.8333V11.6663H4.16667ZM9.16667 7.49967V6.66634H8.33333C7.8731 6.66634 7.5 6.29325 7.5 5.83301C7.5 5.37277 7.8731 4.99967 8.33333 4.99967H9.16667V4.16634C9.16667 3.7061 9.53976 3.33301 10 3.33301C10.4602 3.33301 10.8333 3.7061 10.8333 4.16634V4.99967H11.6667C12.1269 4.99967 12.5 5.37277 12.5 5.83301C12.5 6.29325 12.1269 6.66634 11.6667 6.66634H10.8333V7.49967C10.8333 7.95991 10.4602 8.33301 10 8.33301C9.53976 8.33301 9.16667 7.95991 9.16667 7.49967ZM17.5 14.9997C17.5 15.4417 17.3243 15.8655 17.0117 16.1781C16.6992 16.4906 16.2754 16.6663 15.8333 16.6663H4.16667C3.72464 16.6663 3.30084 16.4906 2.98828 16.1781C2.67572 15.8655 2.5 15.4417 2.5 14.9997V11.6663C2.5 11.2243 2.67572 10.8005 2.98828 10.488C3.30084 10.1754 3.72464 9.99967 4.16667 9.99967H15.8333C16.2754 9.99967 16.6992 10.1754 17.0117 10.488C17.3243 10.8005 17.5 11.2243 17.5 11.6663V14.9997Z" fill="#27272A"/>
</g>
</g>
<defs>
<clipPath id="clip0_7668_108543">
<rect width="20" height="20" fill="white"/>
</clipPath>
</defs>
</svg>
