<svg width="20" height="20" viewBox="0 0 20 20" fill="none" xmlns="http://www.w3.org/2000/svg">
<g clip-path="url(#clip0_7668_108564)">
<mask id="mask0_7668_108564" style="mask-type:alpha" maskUnits="userSpaceOnUse" x="0" y="0" width="20" height="20">
<rect width="20" height="20" fill="#D9D9D9"/>
</mask>
<g mask="url(#mask0_7668_108564)">
<path d="M9.16667 15.833V14.9997H8.33333C7.8731 14.9997 7.5 14.6266 7.5 14.1663C7.5 13.7061 7.8731 13.333 8.33333 13.333H9.16667V12.4997C9.16667 12.0394 9.53976 11.6663 10 11.6663C10.4602 11.6663 10.8333 12.0394 10.8333 12.4997V13.333H11.6667C12.1269 13.333 12.5 13.7061 12.5 14.1663C12.5 14.6266 12.1269 14.9997 11.6667 14.9997H10.8333V15.833C10.8333 16.2932 10.4602 16.6663 10 16.6663C9.53976 16.6663 9.16667 16.2932 9.16667 15.833ZM4.16667 4.99967V8.33301H15.8333V4.99967H4.16667ZM17.5 8.33301C17.5 8.77503 17.3243 9.19883 17.0117 9.51139C16.6992 9.82395 16.2754 9.99967 15.8333 9.99967H4.16667C3.72464 9.99967 3.30084 9.82395 2.98828 9.51139C2.67572 9.19883 2.5 8.77504 2.5 8.33301V4.99967C2.5 4.55765 2.67572 4.13385 2.98828 3.82129C3.30084 3.50873 3.72464 3.33301 4.16667 3.33301H15.8333C16.2754 3.33301 16.6992 3.50873 17.0117 3.82129C17.3243 4.13385 17.5 4.55765 17.5 4.99967V8.33301Z" fill="#27272A"/>
</g>
</g>
<defs>
<clipPath id="clip0_7668_108564">
<rect width="20" height="20" fill="white"/>
</clipPath>
</defs>
</svg>
