<svg width="20" height="20" viewBox="0 0 20 20" fill="none" xmlns="http://www.w3.org/2000/svg">
<g clip-path="url(#clip0_7668_108276)">
<mask id="mask0_7668_108276" style="mask-type:alpha" maskUnits="userSpaceOnUse" x="0" y="0" width="20" height="20">
<rect width="20" height="20" fill="#D9D9D9"/>
</mask>
<g mask="url(#mask0_7668_108276)">
<path d="M5.00016 4.16667V15.8333H8.3335V4.16667H5.00016ZM13.3335 11.6667V10.8333H12.5002C12.0399 10.8333 11.6668 10.4602 11.6668 10C11.6668 9.53976 12.0399 9.16667 12.5002 9.16667H13.3335V8.33333C13.3335 7.8731 13.7066 7.5 14.1668 7.5C14.6271 7.5 15.0002 7.8731 15.0002 8.33333V9.16667H15.8335C16.2937 9.16667 16.6668 9.53976 16.6668 10C16.6668 10.4602 16.2937 10.8333 15.8335 10.8333H15.0002V11.6667C15.0002 12.1269 14.6271 12.5 14.1668 12.5C13.7066 12.5 13.3335 12.1269 13.3335 11.6667ZM10.0002 15.8333C10.0002 16.2754 9.82444 16.6992 9.51188 17.0117C9.19932 17.3243 8.77552 17.5 8.3335 17.5H5.00016C4.55814 17.5 4.13434 17.3243 3.82178 17.0117C3.50922 16.6992 3.3335 16.2754 3.3335 15.8333V4.16667C3.3335 3.72464 3.50922 3.30084 3.82178 2.98828C4.13434 2.67572 4.55813 2.5 5.00016 2.5H8.3335C8.77552 2.5 9.19932 2.67572 9.51188 2.98828C9.82444 3.30084 10.0002 3.72464 10.0002 4.16667V15.8333Z" fill="#27272A"/>
</g>
</g>
<defs>
<clipPath id="clip0_7668_108276">
<rect width="20" height="20" fill="white"/>
</clipPath>
</defs>
</svg>
