<svg width="20" height="20" viewBox="0 0 20 20" fill="none" xmlns="http://www.w3.org/2000/svg">
<g clip-path="url(#clip0_7668_108535)">
<mask id="mask0_7668_108535" style="mask-type:alpha" maskUnits="userSpaceOnUse" x="0" y="0" width="20" height="20">
<rect width="20" height="20" fill="#D9D9D9"/>
</mask>
<g mask="url(#mask0_7668_108535)">
<path d="M11.6668 4.16667V15.8333H15.0002V4.16667H11.6668ZM5.00016 11.6667V10.8333H4.16683C3.70659 10.8333 3.3335 10.4602 3.3335 10C3.3335 9.53976 3.70659 9.16667 4.16683 9.16667H5.00016V8.33333C5.00016 7.8731 5.37326 7.5 5.8335 7.5C6.29373 7.5 6.66683 7.8731 6.66683 8.33333V9.16667H7.50016C7.9604 9.16667 8.3335 9.53976 8.3335 10C8.3335 10.4602 7.9604 10.8333 7.50016 10.8333H6.66683V11.6667C6.66683 12.1269 6.29373 12.5 5.8335 12.5C5.37326 12.5 5.00016 12.1269 5.00016 11.6667ZM16.6668 15.8333C16.6668 16.2754 16.4911 16.6992 16.1785 17.0117C15.866 17.3243 15.4422 17.5 15.0002 17.5H11.6668C11.2248 17.5 10.801 17.3243 10.4884 17.0117C10.1759 16.6992 10.0002 16.2754 10.0002 15.8333V4.16667C10.0002 3.72464 10.1759 3.30084 10.4884 2.98828C10.801 2.67572 11.2248 2.5 11.6668 2.5H15.0002C15.4422 2.5 15.866 2.67572 16.1785 2.98828C16.4911 3.30084 16.6668 3.72464 16.6668 4.16667V15.8333Z" fill="#27272A"/>
</g>
</g>
<defs>
<clipPath id="clip0_7668_108535">
<rect width="20" height="20" fill="white"/>
</clipPath>
</defs>
</svg>
