<?xml version="1.0" encoding="UTF-8" standalone="no" ?>
<!DOCTYPE svg PUBLIC "-//W3C//DTD SVG 1.1//EN" "http://www.w3.org/Graphics/SVG/1.1/DTD/svg11.dtd">
<svg xmlns="http://www.w3.org/2000/svg" xmlns:xlink="http://www.w3.org/1999/xlink" version="1.1" width="1080" height="1080" viewBox="0 0 1080 1080" xml:space="preserve">
<desc>Created with Fabric.js 5.2.4</desc>
<defs>
</defs>
<g transform="matrix(1 0 0 1 540 540)" id="3dee954f-8b05-4668-8d07-e699d6f6a160"  >
<rect style="stroke: none; stroke-width: 1; stroke-dasharray: none; stroke-linecap: butt; stroke-dashoffset: 0; stroke-linejoin: miter; stroke-miterlimit: 4; fill: rgb(255,255,255); fill-rule: nonzero; opacity: 1; visibility: hidden;" vector-effect="non-scaling-stroke"  x="-540" y="-540" rx="0" ry="0" width="1080" height="1080" />
</g>
<g transform="matrix(1 0 0 1 540 540)" id="804aba4b-20d2-4416-bc27-be911266341c"  >
</g>
<g transform="matrix(4.63 0 0 4.63 430.44 540)"  >
<path style="stroke: none; stroke-width: 1; stroke-dasharray: none; stroke-linecap: butt; stroke-dashoffset: 0; stroke-linejoin: miter; stroke-miterlimit: 4; fill: rgb(240,90,40); fill-rule: nonzero; opacity: 1;" vector-effect="non-scaling-stroke"  transform=" translate(-71.4, -112.3)" d="M 121.8 213.1 C 66.2 213.1 21 167.9 21 112.3 C 21 56.69999999999999 66.2 11.5 121.8 11.5 L 121.8 24.7 C 73.5 24.7 34.2 64 34.2 112.3 C 34.2 160.6 73.5 199.89999999999998 121.8 199.89999999999998 L 121.8 213.09999999999997 z" stroke-linecap="round" />
</g>
<g transform="matrix(4.63 0 0 4.63 597.23 495.98)"  >
<path style="stroke: none; stroke-width: 1; stroke-dasharray: none; stroke-linecap: butt; stroke-dashoffset: 0; stroke-linejoin: miter; stroke-miterlimit: 4; fill: rgb(240,90,40); fill-rule: nonzero; opacity: 1;" vector-effect="non-scaling-stroke"  transform=" translate(-107.44, -102.79)" d="M 69.1 175.6 C 52.199999999999996 161.4 41.89999999999999 141.6 39.99999999999999 119.6 C 38.099999999999994 97.69999999999999 44.79999999999999 76.3 58.99999999999999 59.39999999999999 C 73.19999999999999 42.49999999999999 93 32.19999999999999 115 30.29999999999999 C 136.9 28.39999999999999 158.3 35.09999999999999 175.2 49.29999999999999 L 166.7 59.39999999999999 C 152.5 47.49999999999999 134.6 41.89999999999999 116.19999999999999 43.49999999999999 C 97.79999999999998 45.099999999999994 81.1 53.8 69.19999999999999 68 C 57.29999999999998 82.2 51.499999999999986 100 53.09999999999999 118.4 C 54.69999999999999 136.8 63.39999999999999 153.5 77.6 165.4 L 69.1 175.6 z" stroke-linecap="round" />
</g>
<g transform="matrix(4.63 0 0 4.63 583.18 522.89)"  >
<path style="stroke: none; stroke-width: 1; stroke-dasharray: none; stroke-linecap: butt; stroke-dashoffset: 0; stroke-linejoin: miter; stroke-miterlimit: 4; fill: rgb(240,90,40); fill-rule: nonzero; opacity: 1;" vector-effect="non-scaling-stroke"  transform=" translate(-104.4, -108.6)" d="M 91.6 169 C 60.3 152.5 48.3 113.6 64.8 82.4 C 81.3 51.10000000000001 120.19999999999999 39.10000000000001 151.39999999999998 55.60000000000001 L 145.2 67.30000000000001 C 120.39999999999999 54.20000000000001 89.49999999999999 63.70000000000001 76.39999999999999 88.60000000000001 C 63.29999999999999 113.4 72.8 144.3 97.69999999999999 157.4 L 91.6 169 z" stroke-linecap="round" />
</g>
<g transform="matrix(4.63 0 0 4.63 557.71 540)"  >
<path style="stroke: none; stroke-width: 1; stroke-dasharray: none; stroke-linecap: butt; stroke-dashoffset: 0; stroke-linejoin: miter; stroke-miterlimit: 4; fill: rgb(240,90,40); fill-rule: nonzero; opacity: 1;" vector-effect="non-scaling-stroke"  transform=" translate(-98.9, -112.3)" d="M 121.8 158.1 C 96.5 158.1 76 137.6 76 112.3 C 76 87 96.5 66.5 121.8 66.5 L 121.8 79.7 C 103.8 79.7 89.19999999999999 94.3 89.19999999999999 112.30000000000001 C 89.19999999999999 130.3 103.79999999999998 144.9 121.79999999999998 144.9 L 121.79999999999998 158.1 z" stroke-linecap="round" />
</g>
</svg>