<svg fill="black" viewBox="0 0 100 100" preserveAspectRatio="xMidYMid" xmlns="http://www.w3.org/2000/svg">
  <g transform="translate(0,-952.36218)">
    <path style="text-indent:0;text-transform:none;direction:ltr;block-progression:tb;baseline-shift:baseline;color:#000000;enable-background:accumulate;" d="m 10,965.36217 c -3.28942,0 -6,2.71058 -6,6 l 0,56.00003 c 0,3.2894 2.71058,6 6,6 l 57.53125,0 c 2.93676,3.6482 7.43897,6 12.46875,6 8.8129,0 16,-7.1871 16,-16 0,-5.0298 -2.35174,-9.532 -6,-12.4688 l 0,-39.53123 c 0,-3.28942 -2.71058,-6 -6,-6 l -74,0 z m 0,4 74,0 c 1.1426,0 2,0.8574 2,2 l 0,10 -78,0 0,-10 c 0,-1.1426 0.8574,-2 2,-2 z m 4,4 c -1.10457,0 -2,0.89543 -2,2 0,1.10457 0.89543,2 2,2 1.10457,0 2,-0.89543 2,-2 0,-1.10457 -0.89543,-2 -2,-2 z m 8,0 c -1.10457,0 -2,0.89543 -2,2 0,1.10457 0.89543,2 2,2 1.10457,0 2,-0.89543 2,-2 0,-1.10457 -0.89543,-2 -2,-2 z m 8,0 c -1.10457,0 -2,0.89543 -2,2 0,1.10457 0.89543,2 2,2 1.10457,0 2,-0.89543 2,-2 0,-1.10457 -0.89543,-2 -2,-2 z m -22,12 78,0 0,23.15623 c -1.85402,-0.754 -3.88056,-1.1562 -6,-1.1562 -8.8129,0 -16,7.1871 -16,16 0,2.1194 0.40225,4.146 1.15625,6 l -55.15625,0 c -1.1426,0 -2,-0.8574 -2,-2 l 0,-42.00003 z m 72,26.00003 c 6.6511,0 12,5.3489 12,12 0,6.6511 -5.3489,12 -12,12 -6.6511,0 -12,-5.3489 -12,-12 0,-6.6511 5.3489,-12 12,-12 z m 0,3 c -1.1047,0 -2,0.8954 -2,2 l 0,9.1875 -1.59375,-1.5938 c -0.78112,-0.781 -2.03136,-0.781 -2.8125,0 -0.78114,0.781 -0.79674,2.008 0,2.8125 1.62691,1.637 3.33311,3.4237 4.96875,4.9375 0.36508,0.3909 0.86039,0.6563 1.4375,0.6563 0.57711,0 1.07243,-0.2654 1.4375,-0.6563 1.66486,-1.4837 3.30646,-3.3363 4.96875,-4.9375 0.80455,-0.8045 0.78114,-2.0315 0,-2.8125 -0.78114,-0.781 -2.03138,-0.781 -2.8125,0 L 82,1025.5497 l 0,-9.1875 c 0,-1.1046 -0.8953,-2 -2,-2 z" fill="#000000" fill-opacity="1" stroke="none" marker="none" visibility="visible" display="inline" overflow="visible"/>
  </g>
</svg>