<svg viewBox="0 0 24 24" fill="none" xmlns="http://www.w3.org/2000/svg">
<mask id="mask0_1280_940768" style="mask-type:alpha" maskUnits="userSpaceOnUse" x="0" y="0" width="24" height="24">
<rect width="24" height="24" fill="#D9D9D9"/>
</mask>
<g mask="url(#mask0_1280_940768)">
<path d="M12.5 12.5V11.5C12.5 8.73858 14.7386 6.50001 17.5 6.50001H19.8262L18.2412 4.6504L18.1777 4.56934C17.8888 4.15319 17.9566 3.57804 18.3496 3.24122C18.7689 2.8818 19.3994 2.93029 19.7588 3.34962L22.7588 6.84962C23.0798 7.22411 23.0798 7.77591 22.7588 8.1504L19.7588 11.6504C19.3994 12.0697 18.7689 12.1182 18.3496 11.7588C17.9303 11.3994 17.8818 10.7689 18.2412 10.3496L19.8262 8.50001H17.5C15.8431 8.50001 14.5 9.84315 14.5 11.5V12.5C14.5 15.2614 12.2614 17.5 9.5 17.5H8.87402C8.42998 19.2252 6.86384 20.5 5 20.5C2.79086 20.5 1 18.7091 1 16.5C1 14.2909 2.79086 12.5 5 12.5C6.86384 12.5 8.42998 13.7748 8.87402 15.5H9.5C11.1569 15.5 12.5 14.1569 12.5 12.5ZM3 16.5C3 17.6046 3.89543 18.5 5 18.5C6.10457 18.5 7 17.6046 7 16.5C7 15.3954 6.10457 14.5 5 14.5C3.89543 14.5 3 15.3954 3 16.5Z" fill="currentColor"/>
</g>
</svg>
