<?xml version="1.0" encoding="UTF-8" standalone="no" ?>
<!DOCTYPE svg PUBLIC "-//W3C//DTD SVG 1.1//EN" "http://www.w3.org/Graphics/SVG/1.1/DTD/svg11.dtd">
<svg width="360" height="360" xmlns="http://www.w3.org/2000/svg" xml:space="preserve" version="1.1">
 <desc>Created with Fabric.js 5.2.4</desc>
 <g>
  <title>Layer 1</title>
  <g id="b2f7b41e-5b1c-483f-8109-ccaa545fff97" transform="matrix(1 0 0 1 540 540)"/>
  <g id="svg_2" transform="matrix(1 0 0 1 181.71 540)">
   <path id="svg_3" fill="#FFFFFF" stroke-miterlimit="4" stroke-linejoin=" miter" stroke-dashoffset="0" stroke-dasharray=" none" stroke=" none" stroke-linecap=" butt" d="m0.50539,-522.99634c-62.10001,-0.49994 -112.90001,49.30005 -113.50002,111.40005c-0.59999,62.10001 49.30001,112.89999 111.40001,113.49997c0.7,0 1.39999,0 2.10001,0l37,0l0,-42.09998l-37,0c-38.8,0.5 -70.60003,-30.60001 -71.10003,-69.39999c-0.5,-38.80002 30.60001,-70.60001 69.39999,-71.10001c0.5,0 1.10001,0 1.60001,0c38.7,0 70.39999,31.5 70.39999,70.29999l0,0l0,103.5l0,0c0,38.5 -31.29999,69.79999 -69.7,70.29999c-18.39999,-0.19998 -35.89999,-7.5 -48.89999,-20.59998l-29.8,29.69997c20.7,20.79999 48.7,32.60002 78,32.89999l0,0l1.5,0l0,0c61.3,-0.89999 110.60001,-50.60001 110.89999,-111.89998l0,-106.80002c-1.5,-61 -51.39999,-109.59998 -112.29999,-109.70001l0.00002,0l0.00001,0z" vector-effect="non-scaling-stroke"/>
  </g>
 </g>
</svg>