<svg viewBox="0 0 24 24" fill="none" xmlns="http://www.w3.org/2000/svg">
<g clip-path="url(#clip0_16_8284)">
<mask id="mask0_16_8284" style="mask-type:alpha" maskUnits="userSpaceOnUse" x="0" y="0" width="24" height="24">
<rect width="24" height="24" fill="#D9D9D9"/>
</mask>
<g mask="url(#mask0_16_8284)">
<path d="M12 16.5C12 13.9918 10.0216 12.0001 7.63181 12C5.24189 12 3.26267 13.9918 3.26267 16.5C3.26267 17.004 3.34335 17.487 3.49021 17.9365C3.55008 18.1198 3.62491 18.338 3.6533 18.5186C3.67731 18.6716 3.68372 18.7897 3.67478 18.9443C3.66437 19.1243 3.61975 19.3101 3.58787 19.4541L3.28611 20.8145L4.85935 20.6006C4.98947 20.5828 5.15781 20.5565 5.31834 20.5576L5.50779 20.5674C5.5678 20.5735 5.62744 20.5832 5.69529 20.5967C5.85497 20.6285 6.05013 20.7007 6.21482 20.7588C6.65796 20.9152 7.13452 21 7.63181 21C10.0216 20.9999 12 19.0082 12 16.5ZM14 16.5C14 16.6675 13.9917 16.8335 13.9795 16.998C14.0038 16.9983 14.0283 17 14.0527 17C14.9309 17 15.7693 16.8411 16.542 16.5518C16.6915 16.4957 16.8778 16.423 17.0459 16.3877C17.1847 16.3585 17.3034 16.3455 17.4453 16.3447C17.6152 16.3438 17.7889 16.3721 17.9219 16.3916L20.8467 16.8203L20.4765 13.8105C20.4607 13.6818 20.4375 13.5137 20.4414 13.3496C20.4446 13.2123 20.4585 13.0979 20.4883 12.9639C20.5242 12.8021 20.5953 12.623 20.6504 12.4785C20.9438 11.7094 21.1054 10.8743 21.1054 10C21.1054 6.14023 17.9539 3.00008 14.0527 3C10.1515 3 6.99998 6.14018 6.99998 10C6.99998 10.0107 6.99993 10.0215 6.99998 10.0322C7.20764 10.0114 7.41852 10 7.63181 10C11.1716 10.0001 14 12.9332 14 16.5ZM23.1054 10C23.1054 11.1219 22.8983 12.1984 22.5195 13.1914C22.4832 13.2867 22.4619 13.3426 22.4472 13.3838C22.4458 13.3879 22.4425 13.3913 22.4414 13.3945C22.4416 13.3968 22.4421 13.3994 22.4424 13.4023C22.4455 13.4354 22.4513 13.4807 22.4619 13.5664L22.8642 16.8359C22.8838 16.9945 22.9077 17.1795 22.9131 17.3389C22.9187 17.5051 22.911 17.7633 22.7871 18.0342C22.6324 18.3723 22.3581 18.6411 22.0166 18.7881C21.743 18.9057 21.4844 18.9069 21.3183 18.8975C21.159 18.8884 20.9745 18.8601 20.8164 18.8369L17.6318 18.3701C17.5433 18.3571 17.496 18.3507 17.4619 18.3467C17.4597 18.3464 17.456 18.3457 17.456 18.3457C17.4524 18.3469 17.4481 18.3489 17.4433 18.3506C17.4007 18.3654 17.3431 18.3877 17.2441 18.4248C16.2503 18.7971 15.174 19 14.0527 19C13.8728 19 13.694 18.9927 13.5166 18.9824C12.5639 21.3318 10.3008 22.9999 7.63181 23C6.90429 23 6.20318 22.8751 5.54978 22.6445C5.44177 22.6064 5.37431 22.5827 5.32517 22.5664C5.31771 22.5639 5.3119 22.5603 5.30662 22.5586C5.30408 22.5589 5.30116 22.5592 5.29783 22.5596C5.26352 22.5634 5.21652 22.5702 5.12986 22.582L2.13572 22.9912C1.81177 23.0355 1.4862 22.9181 1.26462 22.6777C1.04312 22.4373 0.952864 22.1034 1.02341 21.7842L1.63474 19.0225C1.65598 18.9265 1.66748 18.874 1.67478 18.8359C1.67525 18.8335 1.67538 18.8312 1.67576 18.8291C1.674 18.823 1.67162 18.8156 1.66892 18.8066C1.65247 18.7521 1.62815 18.6779 1.58884 18.5576C1.37716 17.9096 1.26267 17.2171 1.26267 16.5C1.26267 13.8737 2.7968 11.5916 5.01853 10.5703C5.00664 10.3816 4.99998 10.1915 4.99998 10C4.99998 5.02326 9.05927 1 14.0527 1C19.0461 1.00008 23.1054 5.02331 23.1054 10Z" fill="currentColor"/>
</g>
</g>
<defs>
<clipPath id="clip0_16_8284">
<rect width="24" height="24" fill="white"/>
</clipPath>
</defs>
</svg>
