<?xml version="1.0" encoding="UTF-8"?>
<!--Generator: Apple Native CoreSVG 232.5-->
<!DOCTYPE svg
PUBLIC "-//W3C//DTD SVG 1.1//EN"
       "http://www.w3.org/Graphics/SVG/1.1/DTD/svg11.dtd">
<svg version="1.1" xmlns="http://www.w3.org/2000/svg" xmlns:xlink="http://www.w3.org/1999/xlink" width="49.8047" height="49.8291">
 <g>
  <rect height="49.8291" opacity="0" width="49.8047" x="0" y="0"/>
  <path d="M24.9023 49.8047C38.5254 49.8047 49.8047 38.501 49.8047 24.9023C49.8047 11.2793 38.501 0 24.8779 0C11.2793 0 0 11.2793 0 24.9023C0 38.501 11.3037 49.8047 24.9023 49.8047ZM24.9023 45.6543C13.3789 45.6543 4.1748 36.4258 4.1748 24.9023C4.1748 13.3789 13.3545 4.15039 24.8779 4.15039C36.4014 4.15039 45.6543 13.3789 45.6543 24.9023C45.6543 36.4258 36.4258 45.6543 24.9023 45.6543ZM41.6016 40.9912L41.5283 40.7227C40.332 37.1338 33.8867 33.2031 24.9023 33.2031C15.9424 33.2031 9.49707 37.1338 8.27637 40.6982L8.20312 40.9912C12.5977 45.3369 20.1416 47.876 24.9023 47.876C29.6875 47.876 37.1582 45.3613 41.6016 40.9912ZM24.9023 29.0527C29.6143 29.1016 33.2764 25.0977 33.2764 19.8486C33.2764 14.917 29.5898 10.8398 24.9023 10.8398C20.2148 10.8398 16.5039 14.917 16.5283 19.8486C16.5527 25.0977 20.2148 29.0039 24.9023 29.0527Z" fill="#000000" fill-opacity="0.85"/>
 </g>
</svg>
