<svg width="20" height="20" viewBox="0 0 20 20" fill="none" xmlns="http://www.w3.org/2000/svg">
<g clip-path="url(#clip0_7668_108539)">
<mask id="mask0_7668_108539" style="mask-type:alpha" maskUnits="userSpaceOnUse" x="0" y="0" width="20" height="20">
<rect width="20" height="20" fill="#D9D9D9"/>
</mask>
<g mask="url(#mask0_7668_108539)">
<path d="M5.00016 4.16667V15.8333H8.3335V4.16667H5.00016ZM16.0776 7.74414C16.4031 7.4187 16.9306 7.4187 17.256 7.74414C17.5815 8.06958 17.5815 8.59709 17.256 8.92253L16.1785 10L17.256 11.0775C17.5815 11.4029 17.5815 11.9304 17.256 12.2559C16.9306 12.5813 16.4031 12.5813 16.0776 12.2559L15.0002 11.1784L13.9227 12.2559C13.5973 12.5813 13.0697 12.5813 12.7443 12.2559C12.4189 11.9304 12.4189 11.4029 12.7443 11.0775L13.8218 10L12.7443 8.92253C12.4189 8.59709 12.4189 8.06958 12.7443 7.74414C13.0697 7.4187 13.5973 7.4187 13.9227 7.74414L15.0002 8.82161L16.0776 7.74414ZM10.0002 15.8333C10.0002 16.2754 9.82444 16.6992 9.51188 17.0117C9.19932 17.3243 8.77552 17.5 8.3335 17.5H5.00016C4.55814 17.5 4.13434 17.3243 3.82178 17.0117C3.50922 16.6992 3.3335 16.2754 3.3335 15.8333V4.16667C3.3335 3.72464 3.50922 3.30084 3.82178 2.98828C4.13434 2.67572 4.55813 2.5 5.00016 2.5H8.3335C8.77552 2.5 9.19932 2.67572 9.51188 2.98828C9.82444 3.30084 10.0002 3.72464 10.0002 4.16667V15.8333Z" fill="#27272A"/>
</g>
</g>
<defs>
<clipPath id="clip0_7668_108539">
<rect width="20" height="20" fill="white"/>
</clipPath>
</defs>
</svg>
