<svg width="20" height="20" viewBox="0 0 20 20" fill="none" xmlns="http://www.w3.org/2000/svg">
<g clip-path="url(#clip0_7668_108547)">
<mask id="mask0_7668_108547" style="mask-type:alpha" maskUnits="userSpaceOnUse" x="0" y="0" width="20" height="20">
<rect width="20" height="20" fill="#D9D9D9"/>
</mask>
<g mask="url(#mask0_7668_108547)">
<path d="M11.0775 12.7438C11.4029 12.4184 11.9304 12.4184 12.2559 12.7438C12.5813 13.0693 12.5813 13.5968 12.2559 13.9222L11.1784 14.9997L12.2559 16.0771C12.5813 16.4026 12.5813 16.9301 12.2559 17.2555C11.9304 17.581 11.4029 17.581 11.0775 17.2555L10 16.1781L8.92253 17.2555C8.59709 17.581 8.06958 17.581 7.74414 17.2555C7.4187 16.9301 7.4187 16.4026 7.74414 16.0771L8.82161 14.9997L7.74414 13.9222C7.4187 13.5968 7.4187 13.0693 7.74414 12.7438C8.06958 12.4184 8.59709 12.4184 8.92253 12.7438L10 13.8213L11.0775 12.7438ZM4.16667 4.99967V8.33301H15.8333V4.99967H4.16667ZM17.5 8.33301C17.5 8.77503 17.3243 9.19883 17.0117 9.51139C16.6992 9.82395 16.2754 9.99967 15.8333 9.99967H4.16667C3.72464 9.99967 3.30084 9.82395 2.98828 9.51139C2.67572 9.19883 2.5 8.77504 2.5 8.33301V4.99967C2.5 4.55765 2.67572 4.13385 2.98828 3.82129C3.30084 3.50873 3.72464 3.33301 4.16667 3.33301H15.8333C16.2754 3.33301 16.6992 3.50873 17.0117 3.82129C17.3243 4.13385 17.5 4.55765 17.5 4.99967V8.33301Z" fill="#27272A"/>
</g>
</g>
<defs>
<clipPath id="clip0_7668_108547">
<rect width="20" height="20" fill="white"/>
</clipPath>
</defs>
</svg>
