<?xml version="1.0" encoding="utf-8"?>
<svg xmlns="http://www.w3.org/2000/svg" width="16" height="16" fill="currentColor" class="bi bi-robot" viewBox="0 0 16 16">
  <g style="" transform="matrix(0.852947, 0, 0, 0.852947, 0, -0.000004)">
    <path d="M6 12.5a.5.5 0 0 1 .5-.5h3a.5.5 0 0 1 0 1h-3a.5.5 0 0 1-.5-.5M3 8.062C3 6.76 4.235 5.765 5.53 5.886a26.6 26.6 0 0 0 4.94 0C11.765 5.765 13 6.76 13 8.062v1.157a.93.93 0 0 1-.765.935c-.845.147-2.34.346-4.235.346s-3.39-.2-4.235-.346A.93.93 0 0 1 3 9.219zm4.542-.827a.25.25 0 0 0-.217.068l-.92.9a25 25 0 0 1-1.871-.183.25.25 0 0 0-.068.495c.55.076 1.232.149 2.02.193a.25.25 0 0 0 .189-.071l.754-.736.847 1.71a.25.25 0 0 0 .404.062l.932-.97a25 25 0 0 0 1.922-.188.25.25 0 0 0-.068-.495c-.538.074-1.207.145-1.98.189a.25.25 0 0 0-.166.076l-.754.785-.842-1.7a.25.25 0 0 0-.182-.135"/>
    <path d="M 8.5 3 L 10.5 3 C 12.985 3 15 5.015 15 7.5 L 15 7.532 L 14 8.785 L 14 7.5 C 14 5.567 12.433 4 10.5 4 L 5.5 4 C 3.567 4 2 5.567 2 7.5 L 2 13 C 2 13.552 2.448 14 3 14 L 13 14 C 13.069 14 13.136 13.993 13.201 13.98 L 12.935 15 L 3 15 C 1.895 15 1 14.105 1 13 L 1 12 C 0.448 12 0 11.552 0 11 L 0 9 C 0 8.448 0.448 8 1 8 L 1 7.5 C 1 5.015 3.015 3 5.5 3 L 7.5 3 L 7.5 1.866 C 7.191 1.687 7 1.357 7 1 C 7 0.23 7.833 -0.251 8.5 0.134 C 9.167 0.519 9.167 1.481 8.5 1.866 Z"/>
    <path d="M 17.246 5.921 C 17.383 6.017 17.447 6.211 17.401 6.389 L 16.17 11.104 L 18.44 11.104 C 18.705 11.104 18.869 11.441 18.736 11.709 C 18.723 11.737 18.708 11.762 18.691 11.784 L 13.224 18.635 C 13.042 18.861 12.722 18.772 12.648 18.474 C 12.627 18.399 12.627 18.316 12.648 18.241 L 13.878 13.523 L 11.608 13.523 C 11.345 13.523 11.18 13.186 11.311 12.918 C 11.324 12.892 11.341 12.865 11.36 12.843 L 16.826 5.994 C 16.934 5.858 17.108 5.827 17.246 5.921 Z" style="stroke: rgb(255, 255, 255); stroke-width: 0.586; stroke-opacity: 0;"/>
  </g>
</svg>