<svg fill="black" viewBox="0 0 295.898 229.785" preserveAspectRatio="xMidYMid" xmlns="http://www.w3.org/2000/svg">
  <g>
  <rect height="229.785" opacity="0" width="295.898" x="0" y="0"/>
  <path d="M37.9883 229.785L257.812 229.785C283.105 229.785 295.898 217.09 295.898 192.188L295.898 37.8906C295.898 12.9883 283.105 0.292969 257.812 0.292969L37.9883 0.292969C12.793 0.292969 0 12.8906 0 37.8906L0 192.188C0 217.188 12.793 229.785 37.9883 229.785ZM38.3789 212.5C24.707 212.5 17.2852 205.273 17.2852 191.309L17.2852 38.7695C17.2852 24.8047 24.707 17.5781 38.3789 17.5781L257.52 17.5781C270.898 17.5781 278.516 24.8047 278.516 38.7695L278.516 191.309C278.516 205.273 270.898 212.5 257.52 212.5ZM94.5312 215.918L111.426 215.918L111.426 13.8672L94.5312 13.8672ZM70.4102 64.4531C73.8281 64.4531 76.7578 61.4258 76.7578 58.2031C76.7578 54.7852 73.8281 51.9531 70.4102 51.9531L41.6992 51.9531C38.2812 51.9531 35.3516 54.7852 35.3516 58.2031C35.3516 61.4258 38.2812 64.4531 41.6992 64.4531ZM70.4102 97.4609C73.8281 97.4609 76.7578 94.5312 76.7578 91.2109C76.7578 87.8906 73.8281 85.0586 70.4102 85.0586L41.6992 85.0586C38.2812 85.0586 35.3516 87.8906 35.3516 91.2109C35.3516 94.5312 38.2812 97.4609 41.6992 97.4609ZM70.4102 130.469C73.8281 130.469 76.7578 127.637 76.7578 124.316C76.7578 120.996 73.8281 118.164 70.4102 118.164L41.6992 118.164C38.2812 118.164 35.3516 120.996 35.3516 124.316C35.3516 127.637 38.2812 130.469 41.6992 130.469Z" fill="black" />
 </g>
</svg>