<svg fill="#101828" viewBox="0.00 0.00 77.00 77.00" preserveAspectRatio="xMidYMid" xmlns="http://www.w3.org/2000/svg">
<path  d="
  M 38.20 71.97
  C 37.19 53.29 24.26 39.75 5.44 38.83
  Q 3.15 38.71 5.41 38.36
  Q 7.75 37.98 10.72 37.35
  Q 33.52 32.48 37.58 9.47
  Q 38.01 7.05 38.31 5.73
  Q 38.72 3.95 38.83 5.78
  C 40.05 25.16 53.44 36.66 72.12 38.33
  Q 72.15 38.33 72.15 38.35
  L 72.16 38.62
  Q 72.16 38.71 72.07 38.71
  C 52.02 40.34 40.71 52.31 38.67 71.99
  Q 38.64 72.20 38.43 72.19
  L 38.42 72.19
  Q 38.21 72.18 38.20 71.97
  Z"
/>
</svg>
