<svg width="20" height="20" viewBox="0 0 20 20" fill="none" xmlns="http://www.w3.org/2000/svg">
<g clip-path="url(#clip0_7668_108416)">
<mask id="mask0_7668_108416" style="mask-type:alpha" maskUnits="userSpaceOnUse" x="0" y="0" width="20" height="20">
<rect width="20" height="20" fill="#D9D9D9"/>
</mask>
<g mask="url(#mask0_7668_108416)">
<path d="M16.6665 4.16699C16.6665 3.94598 16.5786 3.73408 16.4224 3.5778C16.2661 3.42152 16.0542 3.33366 15.8332 3.33366H8.33317V16.667H15.8332C16.0542 16.667 16.2661 16.5791 16.4224 16.4229C16.5786 16.2666 16.6665 16.0547 16.6665 15.8337V4.16699ZM4.51156 16.667H6.6665V14.512L4.51156 16.667ZM3.33317 13.262V15.4886L6.6665 12.1553V9.92871L3.33317 13.262ZM3.33317 8.67871V10.9053L6.6665 7.57194V5.34538L3.33317 8.67871ZM3.33317 6.32194L6.32145 3.33366H4.1665C3.94549 3.33366 3.73359 3.42152 3.57731 3.5778C3.42103 3.73408 3.33317 3.94598 3.33317 4.16699V6.32194ZM18.3332 15.8337C18.3332 16.4967 18.0696 17.1324 17.6007 17.6012C17.1319 18.0701 16.4962 18.3337 15.8332 18.3337H4.1665C3.50346 18.3337 2.86777 18.0701 2.39893 17.6012C1.93008 17.1324 1.6665 16.4967 1.6665 15.8337V4.16699C1.6665 3.50395 1.93008 2.86826 2.39893 2.39941C2.86777 1.93057 3.50346 1.66699 4.1665 1.66699H15.8332C16.4962 1.66699 17.1319 1.93057 17.6007 2.39941C18.0696 2.86825 18.3332 3.50395 18.3332 4.16699V15.8337Z" fill="#27272A"/>
</g>
</g>
<defs>
<clipPath id="clip0_7668_108416">
<rect width="20" height="20" fill="white"/>
</clipPath>
</defs>
</svg>
