<svg width="20" height="20" viewBox="0 0 20 20" fill="none" xmlns="http://www.w3.org/2000/svg">
<g clip-path="url(#clip0_7668_108485)">
<mask id="mask0_7668_108485" style="mask-type:alpha" maskUnits="userSpaceOnUse" x="0" y="0" width="20" height="20">
<rect width="20" height="20" fill="#D9D9D9"/>
</mask>
<g mask="url(#mask0_7668_108485)">
<path d="M16.6665 8.33366H3.33317V15.8337C3.33317 16.0547 3.42103 16.2666 3.57731 16.4229C3.73359 16.5791 3.94549 16.667 4.1665 16.667H15.8332C16.0542 16.667 16.2661 16.5791 16.4224 16.4229C16.5786 16.2666 16.6665 16.0547 16.6665 15.8337V8.33366ZM9.51156 6.66699H11.7381L15.0715 3.33366H12.8449L9.51156 6.66699ZM4.92822 6.66699H7.15479L10.4881 3.33366H8.26156L4.92822 6.66699ZM16.6624 4.09863L14.0949 6.66699H16.6665V4.16699C16.6665 4.14406 16.6643 4.12132 16.6624 4.09863ZM3.33317 5.90527L5.90479 3.33366H4.1665C3.94549 3.33366 3.73359 3.42152 3.57731 3.5778C3.42103 3.73408 3.33317 3.94598 3.33317 4.16699V5.90527ZM18.3332 15.8337C18.3332 16.4967 18.0696 17.1324 17.6007 17.6012C17.1319 18.0701 16.4962 18.3337 15.8332 18.3337H4.1665C3.50346 18.3337 2.86777 18.0701 2.39893 17.6012C1.93008 17.1324 1.6665 16.4967 1.6665 15.8337V4.16699C1.6665 3.50395 1.93008 2.86826 2.39893 2.39941C2.86777 1.93057 3.50346 1.66699 4.1665 1.66699H15.8332C16.4962 1.66699 17.1319 1.93057 17.6007 2.39941C18.0696 2.86825 18.3332 3.50395 18.3332 4.16699V15.8337Z" fill="#27272A"/>
</g>
</g>
<defs>
<clipPath id="clip0_7668_108485">
<rect width="20" height="20" fill="white"/>
</clipPath>
</defs>
</svg>
