<svg viewBox="0 0 24 24" fill="none" xmlns="http://www.w3.org/2000/svg">
<mask id="mask0_905_325291" style="mask-type:alpha" maskUnits="userSpaceOnUse" x="0" y="0" width="24" height="24">
<rect width="24" height="24" fill="#D9D9D9"/>
</mask>
<g mask="url(#mask0_905_325291)">
<path d="M10.6652 18.2082L15.8384 11.9581H11.8398L12.5645 6.23724L7.94113 12.9662H11.4149L10.6652 18.2082ZM9.11572 14.9824H6.0168C5.61694 14.9824 5.32121 14.8017 5.12961 14.4405C4.93801 14.0793 4.95884 13.7307 5.19209 13.3946L12.6645 2.55773C12.8311 2.32251 13.0477 2.1587 13.3143 2.06629C13.5808 1.97388 13.8557 1.97809 14.139 2.07889C14.4222 2.1797 14.6305 2.35612 14.7638 2.60814C14.897 2.86016 14.947 3.12898 14.9137 3.4146L14.114 9.94195H17.9876C18.4208 9.94195 18.7249 10.1352 18.8998 10.5216C19.0747 10.908 19.0206 11.2693 18.7374 11.6053L10.5152 21.5349C10.332 21.7533 10.107 21.8961 9.84047 21.9633C9.57389 22.0305 9.31565 22.0053 9.06574 21.8877C8.81583 21.7701 8.62006 21.5895 8.47844 21.3459C8.33683 21.1023 8.28268 20.8376 8.316 20.552L9.11572 14.9824Z" fill="currentColor"/>
</g>
</svg>
