<?xml version="1.0" encoding="UTF-8"?>
<svg width="256px" height="233px" viewBox="0 0 256 233" version="1.1" xmlns="http://www.w3.org/2000/svg" preserveAspectRatio="xMidYMid">
    <title>Mistral AI</title>
    <g>
        <rect fill="#B3B3B3" x="209.454545" y="0" width="46.5454545" height="46.5454545"></rect>
        <rect fill="#000000" x="0" y="0" width="46.5454545" height="46.5454545"></rect>
        <rect fill="#000000" x="0" y="46.5454545" width="46.5454545" height="46.5454545"></rect>
        <rect fill="#000000" x="0" y="93.0909091" width="46.5454545" height="46.5454545"></rect>
        <rect fill="#000000" x="0" y="139.636364" width="46.5454545" height="46.5454545"></rect>
        <rect fill="#000000" x="0" y="186.181818" width="46.5454545" height="46.5454545"></rect>
        <rect fill="#B3B3B3" x="23.2727273" y="0" width="46.5454545" height="46.5454545"></rect>
        <rect fill="#A6A6A6" x="209.454545" y="46.5454545" width="46.5454545" height="46.5454545"></rect>
        <rect fill="#A6A6A6" x="23.2727273" y="46.5454545" width="46.5454545" height="46.5454545"></rect>
        <rect fill="#000000" x="139.636364" y="46.5454545" width="46.5454545" height="46.5454545"></rect>
        <rect fill="#A6A6A6" x="162.909091" y="46.5454545" width="46.5454545" height="46.5454545"></rect>
        <rect fill="#A6A6A6" x="69.8181818" y="46.5454545" width="46.5454545" height="46.5454545"></rect>
        <rect fill="#999999" x="116.363636" y="93.0909091" width="46.5454545" height="46.5454545"></rect>
        <rect fill="#999999" x="162.909091" y="93.0909091" width="46.5454545" height="46.5454545"></rect>
        <rect fill="#999999" x="69.8181818" y="93.0909091" width="46.5454545" height="46.5454545"></rect>
        <rect fill="#000000" x="93.0909091" y="139.636364" width="46.5454545" height="46.5454545"></rect>
        <rect fill="#999999" x="116.363636" y="139.636364" width="46.5454545" height="46.5454545"></rect>
        <rect fill="#999999" x="209.454545" y="93.0909091" width="46.5454545" height="46.5454545"></rect>
        <rect fill="#999999" x="23.2727273" y="93.0909091" width="46.5454545" height="46.5454545"></rect>
        <rect fill="#000000" x="186.181818" y="139.636364" width="46.5454545" height="46.5454545"></rect>
        <rect fill="#999999" x="209.454545" y="139.636364" width="46.5454545" height="46.5454545"></rect>
        <rect fill="#000000" x="186.181818" y="186.181818" width="46.5454545" height="46.5454545"></rect>
        <rect fill="#999999" x="23.2727273" y="139.636364" width="46.5454545" height="46.5454545"></rect>
        <rect fill="#949494" x="209.454545" y="186.181818" width="46.5454545" height="46.5454545"></rect>
        <rect fill="#949494" x="23.2727273" y="186.181818" width="46.5454545" height="46.5454545"></rect>
    </g>
</svg>
